<svg width="808" height="702" viewBox="0 0 808 702" fill="none" xmlns="http://www.w3.org/2000/svg">
<g clip-path="url(#clip0)">
<path d="M480.619 700.913H465.859C464.004 700.911 462.224 700.173 460.912 698.86C459.6 697.548 458.861 695.769 458.859 693.913V570.899C458.861 569.043 459.6 567.264 460.912 565.951C462.224 564.639 464.004 563.901 465.859 563.899H480.619C482.475 563.901 484.254 564.639 485.567 565.951C486.879 567.264 487.617 569.043 487.619 570.899V693.913C487.617 695.769 486.879 697.548 485.567 698.86C484.254 700.173 482.475 700.911 480.619 700.913V700.913Z" fill="#6C63FF"/>
<path d="M449.427 700.913H434.667C432.811 700.911 431.032 700.173 429.72 698.86C428.408 697.548 427.669 695.769 427.667 693.913V570.899C427.669 569.043 428.408 567.264 429.72 565.951C431.032 564.639 432.811 563.901 434.667 563.899H449.427C451.283 563.901 453.062 564.639 454.374 565.951C455.687 567.264 456.425 569.043 456.427 570.899V693.913C456.425 695.769 455.687 697.548 454.374 698.86C453.062 700.173 451.283 700.911 449.427 700.913V700.913Z" fill="#6C63FF"/>
<path d="M60.7027 302.843C57.7147 315.355 53.9402 318.333 50.3653 317.479C46.7904 316.626 44.7688 312.263 47.7568 299.751C50.7448 287.239 61.1857 272.169 61.1857 272.169C61.1857 272.169 63.6907 290.331 60.7027 302.843Z" fill="#CCCCCC"/>
<path d="M52.7027 520.843C49.7147 533.355 45.9402 536.333 42.3653 535.479C38.7904 534.626 36.7688 530.263 39.7568 517.751C42.7448 505.239 53.1857 490.169 53.1857 490.169C53.1857 490.169 55.6906 508.331 52.7027 520.843Z" fill="#CCCCCC"/>
<path d="M490.527 131.222C490.527 131.222 497.375 116.733 486.309 112.966C475.242 109.199 476.038 124.374 476.038 124.374L489.5 132.363" fill="#3F3D56"/>
<path d="M257.99 173.853L235.054 192.447C235.054 192.447 579.148 308.088 618.394 331.028L614.52 298.624L582.01 259.027L519.035 218.854L417.381 187.231L306.6 147.391L257.99 173.853Z" fill="#6C63FF"/>
<path d="M433.235 220.093L355.386 414.386C355.386 414.386 342.944 446.559 370.44 452.725C386.972 456.432 395.711 446.404 400.051 437.817C404.688 428.644 392.102 420.579 385.812 428.706C385.71 428.838 385.607 428.973 385.505 429.11C385.351 429.315 368.857 442.114 368.867 424.598C368.908 420.56 369.745 416.569 371.331 412.855L447.837 229.11L433.235 220.093Z" fill="#3F3D56"/>
<path d="M482.625 122.976C482.625 122.976 460.719 119.777 448.398 112.815C448.398 112.815 313.199 84.0388 235.138 191.39C235.138 191.39 602.628 276.457 618.478 329.972C618.478 329.972 641.543 230.94 519.362 139.527C519.361 139.527 489.47 129.138 482.625 122.976Z" fill="#3F3D56"/>
<path d="M65.782 431.717C63.9587 439.352 61.6556 441.169 59.4742 440.648C57.2929 440.127 56.0593 437.465 57.8825 429.831C59.7058 422.196 66.0767 413 66.0767 413C66.0767 413 67.6052 424.082 65.782 431.717Z" fill="#CCCCCC"/>
<path d="M8.782 468.717C6.95876 476.352 4.6556 478.169 2.47423 477.648C0.292857 477.127 -0.940693 474.465 0.882537 466.831C2.70577 459.196 9.07675 450 9.07675 450C9.07675 450 10.6052 461.082 8.782 468.717Z" fill="#CCCCCC"/>
<path d="M427.703 107.843C424.715 120.355 420.94 123.333 417.365 122.479C413.79 121.626 411.769 117.263 414.757 104.751C417.745 92.2393 428.186 77.169 428.186 77.169C428.186 77.169 430.691 95.3306 427.703 107.843Z" fill="#CCCCCC"/>
<path d="M440.782 18.717C438.959 26.3518 436.656 28.169 434.474 27.6481C432.293 27.1272 431.059 24.4654 432.883 16.8305C434.706 9.19572 441.077 0 441.077 0C441.077 0 442.605 11.0823 440.782 18.717Z" fill="#CCCCCC"/>
<path d="M383.782 55.717C381.959 63.3518 379.656 65.169 377.474 64.6481C375.293 64.1272 374.059 61.4654 375.883 53.8305C377.706 46.1957 384.077 37 384.077 37C384.077 37 385.605 48.0823 383.782 55.717Z" fill="#CCCCCC"/>
<path d="M269.703 499.843C266.715 512.355 262.94 515.333 259.365 514.479C255.79 513.626 253.769 509.263 256.757 496.751C259.745 484.239 270.186 469.169 270.186 469.169C270.186 469.169 272.691 487.331 269.703 499.843Z" fill="#CCCCCC"/>
<path d="M282.782 410.717C280.959 418.352 278.656 420.169 276.474 419.648C274.293 419.127 273.059 416.465 274.883 408.831C276.706 401.196 283.077 392 283.077 392C283.077 392 284.605 403.082 282.782 410.717Z" fill="#CCCCCC"/>
<path d="M225.782 447.717C223.959 455.352 221.656 457.169 219.474 456.648C217.293 456.127 216.059 453.465 217.883 445.831C219.706 438.196 226.077 429 226.077 429C226.077 429 227.605 440.082 225.782 447.717Z" fill="#CCCCCC"/>
<path d="M210.703 126.843C207.715 139.355 203.94 142.333 200.365 141.479C196.79 140.626 194.769 136.263 197.757 123.751C200.745 111.239 211.186 96.169 211.186 96.169C211.186 96.169 213.691 114.331 210.703 126.843Z" fill="#CCCCCC"/>
<path d="M202.703 344.843C199.715 357.355 195.94 360.333 192.365 359.479C188.79 358.626 186.769 354.263 189.757 341.751C192.745 329.239 203.186 314.169 203.186 314.169C203.186 314.169 205.691 332.331 202.703 344.843Z" fill="#CCCCCC"/>
<path d="M215.782 255.717C213.959 263.352 211.656 265.169 209.474 264.648C207.293 264.127 206.059 261.465 207.883 253.831C209.706 246.196 216.077 237 216.077 237C216.077 237 217.605 248.082 215.782 255.717Z" fill="#CCCCCC"/>
<path d="M158.782 292.717C156.959 300.352 154.656 302.169 152.474 301.648C150.293 301.127 149.059 298.465 150.883 290.831C152.706 283.196 159.077 274 159.077 274C159.077 274 160.605 285.082 158.782 292.717Z" fill="#CCCCCC"/>
<path d="M363.703 135.843C360.715 148.355 356.94 151.333 353.365 150.479C349.79 149.626 347.769 145.263 350.757 132.751C353.745 120.239 364.186 105.169 364.186 105.169C364.186 105.169 366.691 123.331 363.703 135.843Z" fill="#CCCCCC"/>
<path d="M355.703 353.843C352.715 366.355 348.94 369.333 345.365 368.479C341.79 367.626 339.769 363.263 342.757 350.751C345.745 338.239 356.186 323.169 356.186 323.169C356.186 323.169 358.691 341.331 355.703 353.843Z" fill="#CCCCCC"/>
<path d="M368.782 264.717C366.959 272.352 364.656 274.169 362.474 273.648C360.293 273.127 359.059 270.465 360.883 262.831C362.706 255.196 369.077 246 369.077 246C369.077 246 370.605 257.082 368.782 264.717Z" fill="#CCCCCC"/>
<path d="M505.703 177.843C502.715 190.355 498.94 193.333 495.365 192.479C491.79 191.626 489.769 187.263 492.757 174.751C495.745 162.239 506.186 147.169 506.186 147.169C506.186 147.169 508.691 165.331 505.703 177.843Z" fill="#CCCCCC"/>
<path d="M461.782 125.717C459.959 133.352 457.656 135.169 455.474 134.648C453.293 134.127 452.059 131.465 453.883 123.831C455.706 116.196 462.077 107 462.077 107C462.077 107 463.605 118.082 461.782 125.717Z" fill="#CCCCCC"/>
<path d="M576.703 118.843C573.715 131.355 569.94 134.333 566.365 133.479C562.79 132.626 560.769 128.263 563.757 115.751C566.745 103.239 577.186 88.169 577.186 88.169C577.186 88.169 579.691 106.331 576.703 118.843Z" fill="#CCCCCC"/>
<path d="M568.703 336.843C565.715 349.355 561.94 352.333 558.365 351.479C554.79 350.626 552.769 346.263 555.757 333.751C558.745 321.239 569.186 306.169 569.186 306.169C569.186 306.169 571.691 324.331 568.703 336.843Z" fill="#CCCCCC"/>
<path d="M581.782 247.717C579.959 255.352 577.656 257.169 575.474 256.648C573.293 256.127 572.059 253.465 573.883 245.831C575.706 238.196 582.077 229 582.077 229C582.077 229 583.605 240.082 581.782 247.717Z" fill="#CCCCCC"/>
<path d="M718.703 160.843C715.715 173.355 711.94 176.333 708.365 175.479C704.79 174.626 702.769 170.263 705.757 157.751C708.745 145.239 719.186 130.169 719.186 130.169C719.186 130.169 721.691 148.331 718.703 160.843Z" fill="#CCCCCC"/>
<path d="M674.782 108.717C672.959 116.352 670.656 118.169 668.474 117.648C666.293 117.127 665.059 114.465 666.883 106.831C668.706 99.1957 675.077 90 675.077 90C675.077 90 676.605 101.082 674.782 108.717Z" fill="#CCCCCC"/>
<path d="M659.703 261.843C656.715 274.355 652.94 277.333 649.365 276.479C645.79 275.626 643.769 271.263 646.757 258.751C649.745 246.239 660.186 231.169 660.186 231.169C660.186 231.169 662.691 249.331 659.703 261.843Z" fill="#CCCCCC"/>
<path d="M651.703 479.843C648.715 492.355 644.94 495.333 641.365 494.479C637.79 493.626 635.769 489.263 638.757 476.751C641.745 464.239 652.186 449.169 652.186 449.169C652.186 449.169 654.691 467.331 651.703 479.843Z" fill="#CCCCCC"/>
<path d="M664.782 390.717C662.959 398.352 660.656 400.169 658.474 399.648C656.293 399.127 655.059 396.465 656.883 388.831C658.706 381.196 665.077 372 665.077 372C665.077 372 666.605 383.082 664.782 390.717Z" fill="#CCCCCC"/>
<path d="M801.703 303.843C798.715 316.355 794.94 319.333 791.365 318.479C787.79 317.626 785.769 313.263 788.757 300.751C791.745 288.239 802.186 273.169 802.186 273.169C802.186 273.169 804.691 291.331 801.703 303.843Z" fill="#CCCCCC"/>
<path d="M757.782 251.717C755.959 259.352 753.656 261.169 751.474 260.648C749.293 260.127 748.059 257.465 749.883 249.831C751.706 242.196 758.077 233 758.077 233C758.077 233 759.605 244.082 757.782 251.717Z" fill="#CCCCCC"/>
<path d="M467.901 429.152C496.068 429.152 518.901 406.318 518.901 378.152C518.901 349.985 496.068 327.152 467.901 327.152C439.735 327.152 416.901 349.985 416.901 378.152C416.901 406.318 439.735 429.152 467.901 429.152Z" fill="#6C63FF"/>
<path d="M504.041 615.344H410.251C408.528 615.342 406.876 614.657 405.657 613.438C404.439 612.22 403.753 610.567 403.751 608.844V594.085C403.753 592.362 404.439 590.709 405.657 589.491C406.876 588.272 408.528 587.587 410.251 587.585H504.041C505.764 587.587 507.417 588.272 508.635 589.491C509.854 590.709 510.539 592.362 510.541 594.085V608.844C510.539 610.567 509.854 612.22 508.635 613.438C507.417 614.657 505.764 615.342 504.041 615.344Z" fill="#CCCCCC"/>
<path d="M524.022 593.005C523.975 593.005 523.928 593.004 523.881 593.003L392.73 590.242C391.765 590.222 390.817 589.987 389.954 589.554C389.091 589.122 388.336 588.503 387.742 587.742C387.148 586.981 386.731 586.098 386.522 585.156C386.312 584.214 386.315 583.237 386.53 582.296L418.462 442.496C418.784 441.058 419.588 439.773 420.741 438.854C421.893 437.935 423.325 437.437 424.799 437.443H446.175C461.23 437.495 475.813 442.701 487.498 452.195C499.182 461.689 507.264 474.897 510.397 489.623L530.381 585.174C530.578 586.119 530.563 587.097 530.335 588.036C530.107 588.975 529.673 589.852 529.064 590.602C528.455 591.352 527.687 591.957 526.814 592.372C525.942 592.788 524.988 593.004 524.022 593.005V593.005Z" fill="#2F2E41"/>
<path d="M439.762 513.913C438.052 513.916 436.411 513.243 435.195 512.041L347.669 425.602C347.062 425.002 346.578 424.288 346.247 423.502C345.915 422.715 345.742 421.871 345.736 421.018C345.731 420.164 345.894 419.318 346.216 418.527C346.537 417.736 347.012 417.017 347.612 416.409L357.983 405.907C359.194 404.681 360.843 403.986 362.567 403.975C364.291 403.965 365.948 404.639 367.175 405.85L454.701 492.289C455.926 493.502 456.619 495.15 456.63 496.874C456.641 498.597 455.968 500.255 454.758 501.482L444.387 511.984C443.783 512.596 443.063 513.082 442.268 513.413C441.474 513.745 440.622 513.914 439.762 513.913V513.913Z" fill="#6C63FF"/>
<path d="M435.715 516.531L397.228 478.978C396.028 477.806 395.325 476.218 395.264 474.542C395.204 472.866 395.791 471.231 396.904 469.977L413.104 451.718C413.744 450.997 414.535 450.426 415.422 450.047C416.309 449.669 417.269 449.491 418.232 449.528C419.196 449.564 420.139 449.814 420.995 450.259C421.85 450.703 422.597 451.332 423.18 452.1L464.361 494.07C465.515 495.357 466.112 497.05 466.021 498.777C465.93 500.503 465.159 502.124 463.876 503.283L444.939 517.02C443.65 518.177 441.955 518.775 440.226 518.683C438.497 518.592 436.874 517.818 435.715 516.531V516.531Z" fill="#2F2E41"/>
<path d="M806.452 701.912H68.1577C68.001 701.912 67.8458 701.882 67.701 701.822C67.5561 701.762 67.4245 701.675 67.3135 701.564C67.2026 701.453 67.1146 701.322 67.0545 701.177C66.9945 701.033 66.9636 700.878 66.9636 700.721C66.9636 700.564 66.9945 700.409 67.0545 700.264C67.1146 700.12 67.2026 699.988 67.3135 699.878C67.4245 699.767 67.5561 699.68 67.701 699.62C67.8458 699.56 68.001 699.53 68.1577 699.53H806.452C806.608 699.53 806.764 699.56 806.908 699.62C807.053 699.68 807.185 699.767 807.296 699.878C807.407 699.988 807.495 700.12 807.555 700.264C807.615 700.409 807.646 700.564 807.646 700.721C807.646 700.878 807.615 701.033 807.555 701.177C807.495 701.322 807.407 701.453 807.296 701.564C807.185 701.675 807.053 701.762 806.908 701.822C806.764 701.882 806.608 701.912 806.452 701.912V701.912Z" fill="#3F3D56"/>
</g>
<defs>
<clipPath id="clip0">
<rect width="807.642" height="701.912" fill="white"/>
</clipPath>
</defs>
</svg>
