<svg xmlns="http://www.w3.org/2000/svg" viewBox="0 0 48 48" width="48px" height="48px"><path fill="#0288D1" d="M19,18.3l-2.8,2.8l18.4,18.4c0.8,0.8,2,0.8,2.8,0l0,0c0.8-0.8,0.8-2,0-2.8L19,18.3z"/><path fill="#0288D1" d="M15.9,26.5l5.7-5.7L7.7,7L7.1,7.5c-2.8,2.8-2.8,7.4,0,10.2L15.9,26.5z"/><g><path fill="#03A9F4" d="M31.1,21.7l-2.8-2.8L10.4,36.7c-0.8,0.8-0.8,2,0,2.8l0,0c0.8,0.8,2,0.8,2.8,0L31.1,21.7z"/><path fill="#03A9F4" d="M33.9 6.100000000000001A8 10 0 1 0 33.9 26.1A8 10 0 1 0 33.9 6.100000000000001Z" transform="rotate(45.001 33.945 16.055)"/></g></svg>