<?xml version="1.0" encoding="UTF-8"?>
<svg xmlns="http://www.w3.org/2000/svg" xmlns:xlink="http://www.w3.org/1999/xlink" width="48pt" height="48pt" viewBox="0 0 48 48" version="1.1">
<defs>
<linearGradient id="linear0" gradientUnits="userSpaceOnUse" x1="127.60967" y1="26.8535" x2="127.60967" y2="64.21692" gradientTransform="matrix(0.27907,0,0,0.27907,0,0)">
<stop offset="0" style="stop-color:rgb(87.058824%,87.058824%,87.058824%);stop-opacity:1;"/>
<stop offset="1" style="stop-color:rgb(83.921569%,83.921569%,83.921569%);stop-opacity:1;"/>
</linearGradient>
</defs>
<g id="surface8500436">
<path style=" stroke:none;fill-rule:nonzero;fill:rgb(90.588235%,29.803922%,23.529412%);fill-opacity:1;" d="M 42.582031 9.066406 L 38.933594 5.417969 C 38.378906 4.859375 37.472656 4.859375 36.917969 5.417969 L 35.199219 7.136719 L 40.863281 12.800781 L 42.582031 11.082031 C 43.140625 10.527344 43.140625 9.625 42.582031 9.066406 "/>
<path style=" stroke:none;fill-rule:nonzero;fill:rgb(94.117647%,94.117647%,94.117647%);fill-opacity:1;" d="M 6.90625 35.429688 L 5 43 L 12.570312 41.09375 L 13.363281 34.527344 Z M 6.90625 35.429688 "/>
<path style=" stroke:none;fill-rule:nonzero;fill:rgb(94.509804%,76.862745%,5.882353%);fill-opacity:1;" d="M 36.03125 17.632812 L 12.570312 41.09375 L 6.90625 35.429688 L 30.367188 11.96875 Z M 36.03125 17.632812 "/>
<path style=" stroke:none;fill-rule:nonzero;fill:url(#linear0);" d="M 30.363281 11.96875 L 35.195312 7.132812 L 40.863281 12.796875 L 36.03125 17.632812 Z M 30.363281 11.96875 "/>
<path style=" stroke:none;fill-rule:nonzero;fill:rgb(47.058824%,47.058824%,47.058824%);fill-opacity:1;" d="M 5.964844 39.171875 L 5 43 L 8.828125 42.035156 Z M 5.964844 39.171875 "/>
</g>
</svg>
