<?xml version="1.0" encoding="UTF-8"?>
<svg xmlns="http://www.w3.org/2000/svg" viewBox="0 0 100 100" width="100px" height="100px">
<g id="surface38294575">
<path style=" stroke:none;fill-rule:nonzero;fill:rgb(60.000002%,65.098041%,95.294118%);fill-opacity:1;" d="M 50 8.332031 C 27.082031 8.332031 8.332031 27.082031 8.332031 50 C 8.332031 72.917969 27.082031 91.667969 50 91.667969 C 72.917969 91.667969 91.667969 72.917969 91.667969 50 C 91.667969 27.082031 72.917969 8.332031 50 8.332031 Z M 66.667969 54.167969 L 54.167969 54.167969 L 54.167969 66.667969 C 54.167969 69.167969 52.5 70.832031 50 70.832031 C 47.5 70.832031 45.832031 69.167969 45.832031 66.667969 L 45.832031 54.167969 L 33.332031 54.167969 C 30.832031 54.167969 29.167969 52.5 29.167969 50 C 29.167969 47.5 30.832031 45.832031 33.332031 45.832031 L 45.832031 45.832031 L 45.832031 33.332031 C 45.832031 30.832031 47.5 29.167969 50 29.167969 C 52.5 29.167969 54.167969 30.832031 54.167969 33.332031 L 54.167969 45.832031 L 66.667969 45.832031 C 69.167969 45.832031 70.832031 47.5 70.832031 50 C 70.832031 52.5 69.167969 54.167969 66.667969 54.167969 Z M 66.667969 54.167969 "/>
</g>
</svg>
