<?xml version="1.0"?><svg fill="#000000" xmlns="http://www.w3.org/2000/svg" viewBox="0 0 30 30" width="30px" height="30px">    <path d="M 5 0 C 2.243 0 0 2.243 0 5 C 0 7.757 2.243 10 5 10 C 7.757 10 10 7.757 10 5 C 10 2.243 7.757 0 5 0 z M 5 2 C 5.552 2 6 2.448 6 3 L 6 4.5859375 L 6.7050781 5.2910156 C 7.0960781 5.6820156 7.0960781 6.3140781 6.7050781 6.7050781 C 6.5090781 6.9000781 6.2530469 6.9980469 5.9980469 6.9980469 C 5.7430469 6.9980469 5.4860156 6.9000781 5.2910156 6.7050781 L 4.2402344 5.6542969 C 4.0852344 5.5002969 4 5.2922188 4 5.0742188 L 4 3 C 4 2.448 4.448 2 5 2 z M 24 3 L 24 5 L 21 5 A 1.0001 1.0001 0 0 0 20.199219 5.4003906 L 17.5 9 L 15 9 A 1.0001 1.0001 0 0 0 14.292969 9.2929688 L 11.585938 12 L 9 12 A 1.0001 1.0001 0 0 0 8.4453125 12.167969 L 5.6972656 14 L 5 14 A 1.0001 1.0001 0 1 0 5 16 L 6 16 A 1.0001 1.0001 0 0 0 6.5546875 15.832031 L 9.3027344 14 L 12 14 A 1.0001 1.0001 0 0 0 12.707031 13.707031 L 15.414062 11 L 18 11 A 1.0001 1.0001 0 0 0 18.800781 10.599609 L 21.5 7 L 24 7 L 24 9 L 27 6 L 24 3 z M 23 11 C 22.448 11 22 11.448 22 12 L 22 26 L 26 26 L 26 12 C 26 11.448 25.552 11 25 11 L 23 11 z M 17 14 C 16.448 14 16 14.448 16 15 L 16 26 L 20 26 L 20 15 C 20 14.448 19.552 14 19 14 L 17 14 z M 11 17 C 10.448 17 10 17.448 10 18 L 10 26 L 14 26 L 14 18 C 14 17.448 13.552 17 13 17 L 11 17 z M 5 20 C 4.448 20 4 20.448 4 21 L 4 26 L 8 26 L 8 21 C 8 20.448 7.552 20 7 20 L 5 20 z"/></svg>