<?xml version="1.0"?><svg fill="#000000" xmlns="http://www.w3.org/2000/svg" viewBox="0 0 50 50" width="50px" height="50px">    <path d="M 10.355469 3 C 8.1474687 3 6.5867344 3.9195937 5.9277344 5.6835938 L 4.0332031 12.742188 C 3.9282031 13.136188 4.0714844 13.554781 4.3964844 13.800781 C 4.7214844 14.045781 5.1636719 14.069375 5.5136719 13.859375 L 9.84375 11.259766 L 12.291016 13.707031 C 12.605016 14.021031 13.089563 14.090906 13.476562 13.878906 L 18.320312 11.236328 L 20.792969 13.707031 C 20.985969 13.898031 21.241 14 21.5 14 C 21.664 14 21.827516 13.960906 21.978516 13.878906 L 26.822266 11.236328 L 29.294922 13.707031 C 29.539922 13.951031 29.892469 14.052609 30.230469 13.974609 C 30.568469 13.894609 30.839219 13.645406 30.949219 13.316406 L 34.205078 3.7304688 C 34.291078 3.4704688 34.406109 3.23 34.537109 3 L 33 3 L 30.875 3 L 10.355469 3 z M 37.957031 3 C 37.089564 3.0184844 36.357734 3.5881719 36.099609 4.3730469 L 32.845703 13.947266 C 32.486703 15.025266 31.565922 15.802703 30.419922 15.970703 C 29.448922 16.112703 28.47525 15.716437 27.78125 15.023438 L 26.466797 13.707031 L 22.939453 15.632812 C 21.770453 16.269813 20.322859 16.060141 19.380859 15.119141 L 17.966797 13.707031 L 14.4375 15.632812 C 13.2695 16.269813 11.821859 16.061094 10.880859 15.121094 L 9.5371094 13.777344 L 8.2089844 14.574219 L 4.0605469 23.111328 C 4.0295469 23.206328 4 23.301391 4 23.400391 L 4 46 C 4 46.552 4.448 47 5 47 L 35 47 L 35 23 C 35 22.849 35.034562 22.6995 35.101562 22.5625 L 40 12.480469 L 40 5.1074219 C 40 4.1114219 39.318938 3.1883438 38.335938 3.0273438 C 38.207437 3.0064687 38.080955 2.9973594 37.957031 3 z M 41.5 14 L 37.058594 23.111328 C 37.029594 23.205328 37 23.301391 37 23.400391 L 37 47 L 45 47 C 45.552 47 46 46.552 46 46 L 46 23.472656 C 46 23.317656 45.964531 23.164391 45.894531 23.025391 L 41.5 14 z M 12 29 L 27 29 L 27 39 L 12 39 L 12 29 z"/></svg>