<svg xmlns="http://www.w3.org/2000/svg" viewBox="0 0 48 48" width="48px" height="48px"><path fill="#9575CD" d="M9,15h30c2.2,0,4,1.8,4,4v18H5V19C5,16.8,6.8,15,9,15z"/><path fill="#673AB7" d="M5 37h38v2c0 2.2-1.8 4-4 4H9c-2.2 0-4-1.8-4-4V37zM37 17h-9c-1.1 0-2-.9-2-2v-5c0-1.1.9-2 2-2h9c1.1 0 2 .9 2 2v5C39 16.1 38.1 17 37 17zM11 17H23V21H11z"/><path fill="#90CAF9" d="M23 5L21 6 19 5 17 6 15 5 13 6 11 5 11 19 23 19z"/><path fill="#2196F3" d="M28 10H37V15H28z"/><g><path fill="#B39DDB" d="M10 23H14V27H10zM16 23H20V27H16zM22 23H26V27H22zM28 23H32V27H28zM34 23H38V27H34zM10 29H14V33H10zM16 29H20V33H16zM22 29H26V33H22zM28 29H32V33H28zM34 29H38V33H34zM24 38.5A1.5 1.5 0 1 0 24 41.5 1.5 1.5 0 1 0 24 38.5z"/></g></svg>