<svg xmlns="http://www.w3.org/2000/svg" viewBox="0 0 16 16" width="30px" height="30px"><path fill="#c8d1db" d="M13 10.5A1.5 1.5 0 1 0 13 13.5A1.5 1.5 0 1 0 13 10.5Z"/><path fill="#66798f" d="M13,11c0.551,0,1,0.449,1,1s-0.449,1-1,1s-1-0.449-1-1S12.449,11,13,11 M13,10c-1.105,0-2,0.895-2,2 s0.895,2,2,2s2-0.895,2-2S14.105,10,13,10L13,10z"/><path fill="#c8d1db" d="M3 10.5A1.5 1.5 0 1 0 3 13.5A1.5 1.5 0 1 0 3 10.5Z"/><path fill="#66798f" d="M3,11c0.551,0,1,0.449,1,1s-0.449,1-1,1s-1-0.449-1-1S2.449,11,3,11 M3,10c-1.105,0-2,0.895-2,2 s0.895,2,2,2s2-0.895,2-2S4.105,10,3,10L3,10z"/><path fill="#f78f8f" d="M6.566,11.5c-1.73,0-4.929-0.656-6.052-0.898c0.088-1.196,0.574-1.811,1.046-2.407 C1.94,7.714,2.331,7.22,2.458,6.5h3.943C6.343,6.595,6.26,6.658,6.154,6.738C5.894,6.937,5.5,7.237,5.5,8 c0,0.938,0.923,1.5,1.814,1.5h2.639l1.413-1.754c0.441-0.71,0.769-1.422,0.414-2.164l-0.954-2.009 c0.576,0.642,2.184,2.609,2.324,4.75l0.021,0.319l0.299,0.114c1.154,0.441,1.705,1.359,1.925,1.847l-0.399,0.278 c-0.547-0.475-1.171-0.715-1.861-0.715c-1.354,0-2.542,0.953-2.961,1.333H6.566z"/><path fill="#c74343" d="M12.331,6.91c0.169,0.462,0.289,0.95,0.321,1.446l0.042,0.639l0.598,0.229 c0.43,0.165,0.762,0.407,1.015,0.662c-0.372-0.145-0.765-0.219-1.173-0.219c-1.397,0-2.591,0.853-3.151,1.333H9.036h-2.47 c-1.494,0-4.146-0.51-5.499-0.792C1.209,9.445,1.56,9.001,1.952,8.505C2.271,8.102,2.642,7.632,2.846,7h2.392 C5.1,7.247,5,7.57,5,8c0,1.122,1.016,2,2.314,2h2.4h0.479l0.3-0.373l1.262-1.568l0.04-0.049l0.033-0.054 C11.976,7.717,12.201,7.35,12.331,6.91 M10.973,3H10c0,0,1.101,2.316,1.329,2.797s0.055,0.972-0.353,1.635L9.714,9h-2.4 C6.669,9,6,8.621,6,8c0-1.091,1-0.632,1-2H2c0,1.875-2,2.055-2,5c0,0,4.372,1,6.566,1h2.47h1.337c0,0,1.298-1.333,2.761-1.333 c0.602,0,1.231,0.225,1.809,0.861L16,10.791c0,0-0.49-1.788-2.35-2.5C13.464,5.462,10.973,3,10.973,3L10.973,3z"/><path fill="#36404d" d="M8 3H11V4H8z"/><g><path fill="#f78f8f" d="M12,3.5c-0.275,0-0.5-0.225-0.5-0.5s0.225-0.5,0.5-0.5h0.5v1H12z"/><path fill="#c74343" d="M13,2h-1c-0.552,0-1,0.448-1,1s0.448,1,1,1h1V2L13,2z"/></g><path fill="#a16a4a" d="M6,7H2C1.448,7,1,6.552,1,6v0c0-0.552,0.448-1,1-1h4c0.552,0,1,0.448,1,1v0C7,6.552,6.552,7,6,7z"/></svg>