<?xml version="1.0"?><svg fill="#000000" xmlns="http://www.w3.org/2000/svg" viewBox="0 0 30 30" width="30px" height="30px">    <path d="M 6.4511719 2 C 6.1881719 2 5.9621094 2.1863125 5.9121094 2.4453125 C 5.6701094 3.7133125 5 7.362 5 9 C 5 13 8 14 8 14 L 8 26.5 C 8 27.328 8.672 28 9.5 28 C 10.328 28 11 27.328 11 26.5 L 11 14 C 11 14 14 13 14 9 C 14 7.362 13.329891 3.7133125 13.087891 2.4453125 C 13.037891 2.1863125 12.811828 2 12.548828 2 C 12.245828 2 12 2.2458281 12 2.5488281 L 12 8.3554688 C 12 8.7114687 11.711469 9 11.355469 9 C 11.026469 9 10.750844 8.7527812 10.714844 8.4257812 L 10.054688 2.4863281 C 10.023687 2.2093281 9.7897656 2 9.5097656 2 L 9.5 2 L 9.4902344 2 C 9.2102344 2 8.9763125 2.2102812 8.9453125 2.4882812 L 8.2851562 8.4277344 C 8.2491563 8.7537344 7.9735312 9 7.6445312 9 C 7.2885313 9 7 8.7114687 7 8.3554688 L 7 2.5488281 C 7 2.2458281 6.7541719 2 6.4511719 2 z M 23 2 A 1 1 0 0 0 22.15625 2.4648438 C 22.15625 2.4648438 19 7.055 19 12 L 19 13.980469 C 19 14.637469 19.238875 15.272578 19.671875 15.767578 L 21 17.056641 L 21 26.5 C 21 27.328 21.672 28 22.5 28 C 23.328 28 24 27.328 24 26.5 L 24 3 A 1 1 0 0 0 23 2 z"/></svg>