<?xml version="1.0"?><svg fill="#000000" xmlns="http://www.w3.org/2000/svg" viewBox="0 0 24 24" width="24px" height="24px">    <path d="M 12 3 A 4 4 0 0 0 8 7 A 4 4 0 0 0 12 11 A 4 4 0 0 0 16 7 A 4 4 0 0 0 12 3 z M 12 14 C 8.996 14 3 15.508 3 18.5 L 3 20 C 3 20.552 3.448 21 4 21 L 10.457031 21 L 11.125 17 L 10.625 16 L 12 15 L 13.375 16 L 12.875 17 L 13.542969 21 L 16 21 L 16 20 C 16 19.448 16.448 19 17 19 L 18 19 C 18.552 19 19 19.448 19 20 L 19 21 L 20 21 C 20.552 21 21 20.552 21 20 L 21 18.5 C 21 15.508 15.004 14 12 14 z"/></svg>