<svg xmlns="http://www.w3.org/2000/svg" viewBox="0 0 48 48" width="48px" height="48px"><path fill="#ffb74d" d="M24 37A3 3 0 1 0 24 43A3 3 0 1 0 24 37Z"/><path fill="#ffc878" d="M0,41V8h20c2.209,0,4,1.79,4,4v29H0z"/><path fill="#ffb74d" d="M24,41V12c0-2.21,1.791-4,4-4h20v33H24z"/><path fill="#ef6c00" d="M29 16H39V18H29zM41 16H43V18H41zM29 21H37V23H29zM41 21H43V23H41zM29 26H39V28H29zM41 26H43V28H41zM29 31H37V33H29zM41 31H43V33H41z"/><path fill="#fb8c00" d="M9.988,22.797l-1.191,1.191l7.765,7.765c0.329,0.329,0.862,0.329,1.191,0l0,0c0.329-0.329,0.329-0.862,0-1.191L9.988,22.797z"/><path fill="#fb8c00" d="M8.674,26.246l2.382-2.382l-5.831-5.831l-0.368,0.368c-1.112,1.112-1.112,2.916,0,4.029L8.674,26.246z"/><g><path fill="#ef6c00" d="M14.949,24.242l-1.191-1.191l-7.511,7.511c-0.329,0.329-0.329,0.862,0,1.191l0,0c0.329,0.329,0.862,0.329,1.191,0L14.949,24.242z"/><path fill="#ef6c00" d="M16.5 18.408A3.865 3.092 0 1 0 16.5 24.592A3.865 3.092 0 1 0 16.5 18.408Z" transform="rotate(-45.001 16.5 21.5)"/></g></svg>