<svg fill="#000000" xmlns="http://www.w3.org/2000/svg" viewBox="0 0 50 50" width="50px" height="50px"><path d="M 6 12 C 5.714844 12 5.441406 12.128906 5.25 12.34375 C 5.058594 12.558594 4.964844 12.839844 5 13.125 L 8 37.125 C 8.0625 37.625 8.496094 38 9 38 L 49 38 C 49.300781 38 49.59375 37.859375 49.78125 37.625 C 49.972656 37.390625 50.03125 37.078125 49.96875 36.78125 L 44.96875 12.78125 C 44.871094 12.316406 44.472656 12 44 12 Z M 3.65625 18.5 L 0.03125 33.78125 C -0.0390625 34.078125 0.0273438 34.382813 0.21875 34.625 C 0.410156 34.863281 0.695313 35 1 35 L 5.71875 35 Z M 17 24 L 38 24 C 38.554688 24 39 24.449219 39 25 C 39 25.550781 38.554688 26 38 26 L 17 26 C 16.449219 26 16 25.550781 16 25 C 16 24.449219 16.449219 24 17 24 Z"/></svg>